<svg xmlns="http://www.w3.org/2000/svg" xmlns:xlink="http://www.w3.org/1999/xlink" width="380" zoomAndPan="magnify" viewBox="0 0 285 76.499998" height="102" preserveAspectRatio="xMidYMid meet" version="1.0"><defs><g/><clipPath id="25b4046fb9"><path d="M 0.925781 0 L 252 0 L 252 76 L 0.925781 76 Z M 0.925781 0 " clip-rule="nonzero"/></clipPath><clipPath id="1f2cc8cab4"><path d="M 0.925781 24 L 32 24 L 32 37 L 0.925781 37 Z M 0.925781 24 " clip-rule="nonzero"/></clipPath><clipPath id="aab24243d8"><path d="M 0.925781 38 L 32 38 L 32 51 L 0.925781 51 Z M 0.925781 38 " clip-rule="nonzero"/></clipPath><clipPath id="051a16b767"><path d="M 41 46 L 53 46 L 53 75.707031 L 41 75.707031 Z M 41 46 " clip-rule="nonzero"/></clipPath><clipPath id="51b6303928"><path d="M 27 46 L 39 46 L 39 75.707031 L 27 75.707031 Z M 27 46 " clip-rule="nonzero"/></clipPath><clipPath id="02e7120365"><path d="M 48 38 L 79 38 L 79 51 L 48 51 Z M 48 38 " clip-rule="nonzero"/></clipPath><clipPath id="353c4dc9e4"><path d="M 48 24 L 79 24 L 79 37 L 48 37 Z M 48 24 " clip-rule="nonzero"/></clipPath><clipPath id="91fe70bc6a"><rect x="0" width="252" y="0" height="76"/></clipPath></defs><g clip-path="url(#25b4046fb9)"><g transform="matrix(1, 0, 0, 1, 0.000000000000000111, 0)"><g clip-path="url(#91fe70bc6a)"><path fill="#ffffff" d="M 43.429688 26.792969 L 43.429688 21.363281 L 48 18.910156 C 49.511719 18.101562 50.707031 16.957031 51.523438 15.589844 C 52.34375 14.222656 52.789062 12.441406 52.789062 10.722656 L 52.789062 0 L 51.558594 0.707031 L 46.351562 3.6875 C 44.90625 4.507812 43.765625 5.652344 42.988281 6.992188 C 42.210938 8.34375 41.792969 10.953125 41.792969 12.621094 L 41.792969 17.640625 L 42.570312 17.222656 C 43.113281 16.929688 43.4375 16.394531 43.4375 15.769531 L 43.4375 12.621094 C 43.4375 11.246094 43.78125 9.972656 44.414062 8.878906 C 45.042969 7.785156 45.984375 6.855469 47.179688 6.171875 L 51.15625 3.894531 L 51.15625 10.722656 C 51.15625 12.132812 50.800781 13.449219 50.132812 14.558594 C 49.46875 15.675781 48.484375 16.605469 47.246094 17.273438 L 42.671875 19.722656 C 42.125 20.011719 41.800781 20.550781 41.800781 21.175781 L 41.800781 28.652344 L 42.578125 28.234375 C 43.113281 27.953125 43.429688 27.417969 43.429688 26.792969 Z M 43.429688 26.792969 " fill-opacity="1" fill-rule="nonzero"/><path fill="#ffffff" d="M 32.09375 18.921875 L 36.660156 21.371094 L 36.660156 26.800781 C 36.660156 27.425781 36.976562 27.960938 37.53125 28.253906 L 38.308594 28.671875 L 38.308594 21.191406 C 38.308594 20.570312 37.984375 20.03125 37.4375 19.742188 L 32.859375 17.289062 C 31.621094 16.625 30.640625 15.691406 29.976562 14.574219 C 29.308594 13.464844 28.949219 12.148438 28.949219 10.742188 L 28.949219 3.910156 L 32.929688 6.191406 C 34.117188 6.875 35.054688 7.804688 35.695312 8.898438 C 36.328125 9.988281 36.667969 11.261719 36.667969 12.636719 L 36.667969 15.785156 C 36.667969 16.410156 36.992188 16.949219 37.539062 17.238281 L 38.316406 17.65625 L 38.316406 12.636719 C 38.316406 10.972656 37.898438 8.359375 37.121094 7.011719 C 36.335938 5.660156 35.199219 4.523438 33.757812 3.707031 L 28.546875 0.726562 L 27.320312 0.015625 L 27.320312 10.742188 C 27.320312 12.449219 27.761719 14.234375 28.582031 15.609375 C 29.386719 16.964844 30.582031 18.109375 32.09375 18.921875 Z M 32.09375 18.921875 " fill-opacity="1" fill-rule="nonzero"/><path fill="#ffffff" d="M 19.113281 23.710938 L 21.53125 25.101562 L 23.46875 26.222656 L 23.496094 25.339844 C 23.511719 24.71875 23.210938 24.171875 22.675781 23.855469 L 22.359375 23.675781 L 19.941406 22.285156 C 18.753906 21.601562 17.816406 20.664062 17.183594 19.570312 C 16.550781 18.476562 16.21875 17.195312 16.226562 15.820312 L 16.246094 11.234375 L 22.164062 14.652344 C 23.382812 15.359375 24.339844 16.324219 24.972656 17.460938 C 25.601562 18.597656 25.925781 19.910156 25.875 21.320312 L 25.714844 26.511719 C 25.695312 27.132812 25.996094 27.679688 26.535156 27.988281 L 33.015625 31.726562 L 33.039062 30.839844 C 33.058594 30.214844 32.757812 29.671875 32.21875 29.363281 L 27.515625 26.648438 L 27.679688 21.464844 C 27.738281 19.757812 27.34375 18.144531 26.566406 16.75 C 25.789062 15.359375 24.46875 14.078125 22.992188 13.226562 L 15.835938 9.101562 L 13.691406 7.863281 L 13.683594 9.28125 L 13.65625 15.285156 C 13.648438 16.949219 14.066406 18.503906 14.835938 19.851562 C 15.621094 21.207031 17.671875 22.875 19.113281 23.710938 Z M 19.113281 23.710938 " fill-opacity="1" fill-rule="nonzero"/><g clip-path="url(#1f2cc8cab4)"><path fill="#ffffff" d="M 10.234375 35.304688 C 11.710938 36.160156 13.480469 36.664062 15.074219 36.644531 C 16.671875 36.621094 18.261719 36.160156 19.71875 35.253906 L 24.125 32.523438 L 28.832031 35.238281 C 29.367188 35.542969 29.992188 35.535156 30.519531 35.210938 L 31.273438 34.742188 L 24.792969 31.003906 C 24.253906 30.695312 23.628906 30.703125 23.101562 31.027344 L 18.6875 33.769531 C 17.492188 34.511719 16.195312 34.894531 14.894531 34.914062 C 13.597656 34.929688 12.285156 34.589844 11.0625 33.886719 L 5.144531 30.472656 L 9.105469 28.167969 C 10.292969 27.476562 11.566406 27.125 12.828125 27.125 C 14.09375 27.125 15.367188 27.46875 16.550781 28.148438 L 18.96875 29.542969 L 19.285156 29.722656 C 19.824219 30.039062 20.445312 30.019531 20.976562 29.695312 L 21.726562 29.234375 L 19.789062 28.117188 L 17.371094 26.722656 C 15.929688 25.894531 13.460938 24.949219 11.898438 24.949219 C 10.34375 24.957031 8.792969 25.375 7.347656 26.210938 L 2.15625 29.234375 L 0.929688 29.953125 L 3.070312 31.191406 Z M 10.234375 35.304688 " fill-opacity="1" fill-rule="nonzero"/></g><path fill="#ffffff" d="M 27.507812 48.949219 L 32.210938 46.234375 C 32.75 45.925781 33.058594 45.378906 33.03125 44.757812 L 33.003906 43.871094 L 26.535156 47.609375 C 25.996094 47.925781 25.6875 48.472656 25.707031 49.085938 L 25.867188 54.277344 C 25.910156 55.675781 25.59375 57 24.960938 58.136719 C 24.332031 59.273438 23.375 60.238281 22.152344 60.945312 L 16.238281 64.359375 L 16.21875 59.777344 C 16.210938 58.402344 16.550781 57.128906 17.175781 56.027344 C 17.808594 54.933594 18.738281 54.003906 19.933594 53.3125 L 22.351562 51.921875 L 22.664062 51.742188 C 23.203125 51.425781 23.511719 50.886719 23.484375 50.253906 L 23.460938 49.375 L 21.523438 50.496094 L 19.105469 51.886719 C 17.664062 52.714844 15.613281 54.386719 14.835938 55.738281 C 14.058594 57.085938 13.648438 58.640625 13.65625 60.304688 L 13.683594 66.308594 L 13.691406 67.726562 L 15.835938 66.488281 L 22.980469 62.363281 C 24.457031 61.507812 25.78125 60.226562 26.558594 58.835938 C 27.335938 57.445312 27.730469 55.832031 27.667969 54.125 Z M 27.507812 48.949219 " fill-opacity="1" fill-rule="nonzero"/><g clip-path="url(#aab24243d8)"><path fill="#ffffff" d="M 19.789062 47.488281 L 21.726562 46.371094 L 20.976562 45.910156 C 20.445312 45.585938 19.824219 45.566406 19.285156 45.882812 L 18.96875 46.0625 L 16.550781 47.457031 C 15.367188 48.136719 14.085938 48.488281 12.828125 48.480469 C 11.566406 48.480469 10.292969 48.128906 9.105469 47.4375 L 5.144531 45.132812 L 11.0625 41.71875 C 12.285156 41.007812 13.597656 40.667969 14.894531 40.691406 C 16.195312 40.710938 17.5 41.09375 18.6875 41.835938 L 23.101562 44.578125 C 23.628906 44.910156 24.253906 44.910156 24.792969 44.601562 L 31.273438 40.863281 L 30.519531 40.394531 C 29.992188 40.070312 29.367188 40.0625 28.832031 40.367188 L 24.125 43.082031 L 19.71875 40.351562 C 18.269531 39.445312 16.671875 38.984375 15.074219 38.960938 C 13.480469 38.933594 11.710938 39.4375 10.234375 40.300781 L 3.089844 44.425781 L 0.945312 45.664062 L 2.175781 46.378906 L 7.367188 49.402344 C 8.800781 50.238281 10.355469 50.65625 11.917969 50.664062 C 13.46875 50.664062 15.945312 49.726562 17.390625 48.890625 Z M 19.789062 47.488281 " fill-opacity="1" fill-rule="nonzero"/></g><g clip-path="url(#051a16b767)"><path fill="#ffffff" d="M 48.007812 56.675781 L 43.4375 54.226562 L 43.4375 48.804688 C 43.4375 48.179688 43.113281 47.644531 42.570312 47.351562 L 41.792969 46.933594 L 41.792969 54.414062 C 41.792969 55.035156 42.117188 55.574219 42.664062 55.867188 L 47.238281 58.316406 C 48.476562 58.980469 49.457031 59.914062 50.125 61.03125 C 50.789062 62.140625 51.148438 63.457031 51.148438 64.863281 L 51.148438 71.695312 L 47.171875 69.414062 C 45.984375 68.730469 45.042969 67.808594 44.402344 66.71875 C 43.773438 65.625 43.429688 64.351562 43.429688 62.976562 L 43.429688 59.828125 C 43.429688 59.203125 43.105469 58.664062 42.558594 58.375 L 41.78125 57.957031 L 41.78125 62.976562 C 41.78125 64.640625 42.203125 67.253906 42.976562 68.605469 C 43.753906 69.953125 44.898438 71.089844 46.34375 71.910156 L 51.550781 74.886719 L 52.78125 75.597656 L 52.78125 64.875 C 52.78125 63.164062 52.335938 61.382812 51.515625 60.007812 C 50.714844 58.632812 49.511719 57.488281 48.007812 56.675781 Z M 48.007812 56.675781 " fill-opacity="1" fill-rule="nonzero"/></g><g clip-path="url(#51b6303928)"><path fill="#ffffff" d="M 36.660156 48.804688 L 36.660156 54.234375 L 32.09375 56.683594 C 30.582031 57.488281 29.386719 58.640625 28.566406 60.007812 C 27.746094 61.382812 27.300781 63.164062 27.300781 64.875 L 27.300781 75.597656 L 28.53125 74.886719 L 33.75 71.910156 C 35.191406 71.089844 36.335938 69.945312 37.113281 68.605469 C 37.890625 67.253906 38.308594 64.640625 38.308594 62.976562 L 38.308594 57.957031 L 37.53125 58.375 C 36.984375 58.664062 36.660156 59.203125 36.660156 59.828125 L 36.660156 62.976562 C 36.660156 64.351562 36.320312 65.625 35.6875 66.71875 C 35.054688 67.808594 34.117188 68.742188 32.921875 69.414062 L 28.941406 71.695312 L 28.941406 64.863281 C 28.941406 63.457031 29.300781 62.140625 29.964844 61.03125 C 30.632812 59.914062 31.613281 58.980469 32.851562 58.316406 L 37.429688 55.867188 C 37.976562 55.574219 38.300781 55.035156 38.300781 54.414062 L 38.300781 46.933594 L 37.523438 47.351562 C 36.984375 47.644531 36.660156 48.179688 36.660156 48.804688 Z M 36.660156 48.804688 " fill-opacity="1" fill-rule="nonzero"/></g><g clip-path="url(#02e7120365)"><path fill="#ffffff" d="M 77.003906 44.414062 L 69.855469 40.292969 C 68.378906 39.4375 66.613281 38.925781 65.015625 38.953125 C 63.417969 38.976562 61.832031 39.4375 60.371094 40.34375 L 55.964844 43.074219 L 51.261719 40.359375 C 50.722656 40.050781 50.097656 40.050781 49.570312 40.386719 L 48.820312 40.855469 L 55.300781 44.59375 C 55.835938 44.902344 56.460938 44.894531 56.988281 44.570312 L 61.402344 41.828125 C 62.597656 41.085938 63.898438 40.703125 65.195312 40.683594 C 66.492188 40.667969 67.808594 41.007812 69.027344 41.710938 L 74.945312 45.125 L 70.984375 47.429688 C 69.796875 48.121094 68.523438 48.472656 67.261719 48.472656 C 65.996094 48.472656 64.726562 48.128906 63.539062 47.445312 L 61.121094 46.054688 L 60.804688 45.875 C 60.269531 45.558594 59.644531 45.578125 59.117188 45.902344 L 58.363281 46.363281 L 60.300781 47.480469 L 62.71875 48.871094 C 64.160156 49.699219 66.628906 50.648438 68.191406 50.648438 C 69.746094 50.640625 71.300781 50.222656 72.742188 49.386719 L 77.933594 46.363281 L 79.164062 45.644531 Z M 77.003906 44.414062 " fill-opacity="1" fill-rule="nonzero"/></g><path fill="#ffffff" d="M 60.976562 51.886719 L 58.558594 50.496094 L 56.621094 49.375 L 56.605469 50.253906 C 56.589844 50.878906 56.886719 51.425781 57.425781 51.742188 L 57.742188 51.921875 L 60.15625 53.3125 C 61.34375 53.996094 62.28125 54.933594 62.90625 56.027344 C 63.539062 57.121094 63.871094 58.402344 63.863281 59.765625 L 63.84375 64.351562 L 57.929688 60.9375 C 56.707031 60.226562 55.75 59.261719 55.121094 58.128906 C 54.488281 56.992188 54.164062 55.675781 54.214844 54.269531 L 54.375 49.078125 C 54.394531 48.453125 54.09375 47.90625 53.546875 47.601562 L 47.066406 43.859375 L 47.042969 44.75 C 47.023438 45.371094 47.324219 45.917969 47.863281 46.226562 L 52.566406 48.941406 L 52.394531 54.125 C 52.335938 55.832031 52.730469 57.445312 53.503906 58.835938 C 54.28125 60.226562 55.605469 61.507812 57.082031 62.363281 L 64.230469 66.488281 L 66.371094 67.726562 L 66.382812 66.308594 L 66.40625 60.304688 C 66.414062 58.640625 65.996094 57.085938 65.230469 55.738281 C 64.476562 54.386719 62.417969 52.722656 60.976562 51.886719 Z M 60.976562 51.886719 " fill-opacity="1" fill-rule="nonzero"/><path fill="#ffffff" d="M 52.582031 26.648438 L 47.878906 29.363281 C 47.339844 29.671875 47.035156 30.214844 47.058594 30.839844 L 47.085938 31.726562 L 53.566406 27.988281 C 54.105469 27.671875 54.410156 27.125 54.394531 26.511719 L 54.230469 21.320312 C 54.1875 19.910156 54.503906 18.597656 55.136719 17.460938 C 55.769531 16.324219 56.714844 15.359375 57.945312 14.652344 L 63.863281 11.234375 L 63.878906 15.820312 C 63.886719 17.195312 63.546875 18.46875 62.921875 19.570312 C 62.292969 20.664062 61.359375 21.59375 60.164062 22.285156 L 57.75 23.675781 L 57.433594 23.855469 C 56.894531 24.171875 56.589844 24.710938 56.613281 25.332031 L 56.640625 26.210938 L 58.578125 25.09375 L 60.992188 23.703125 C 62.4375 22.875 64.484375 21.199219 65.261719 19.851562 C 66.039062 18.503906 66.449219 16.949219 66.441406 15.285156 L 66.414062 9.28125 L 66.40625 7.863281 L 64.265625 9.101562 L 57.117188 13.226562 C 55.640625 14.078125 54.316406 15.359375 53.539062 16.75 C 52.761719 18.144531 52.371094 19.757812 52.429688 21.464844 Z M 52.582031 26.648438 " fill-opacity="1" fill-rule="nonzero"/><g clip-path="url(#353c4dc9e4)"><path fill="#ffffff" d="M 60.300781 28.109375 L 58.363281 29.226562 L 59.117188 29.6875 C 59.644531 30.011719 60.269531 30.027344 60.804688 29.710938 L 61.121094 29.535156 L 63.539062 28.140625 C 64.726562 27.457031 66.003906 27.109375 67.261719 27.117188 C 68.523438 27.117188 69.796875 27.46875 70.984375 28.160156 L 74.945312 30.464844 L 69.027344 33.878906 C 67.808594 34.589844 66.492188 34.929688 65.195312 34.902344 C 63.898438 34.886719 62.589844 34.503906 61.402344 33.761719 L 56.988281 31.019531 C 56.460938 30.6875 55.835938 30.675781 55.300781 30.992188 L 48.820312 34.734375 L 49.570312 35.195312 C 50.097656 35.519531 50.722656 35.535156 51.261719 35.21875 L 55.964844 32.503906 L 60.371094 35.238281 C 61.820312 36.140625 63.417969 36.601562 65.015625 36.628906 C 66.613281 36.65625 68.378906 36.152344 69.855469 35.289062 L 77.003906 31.164062 L 79.144531 29.925781 L 77.917969 29.210938 L 72.726562 26.1875 C 71.289062 25.351562 69.738281 24.929688 68.175781 24.921875 C 66.621094 24.921875 64.144531 25.863281 62.703125 26.699219 Z M 60.300781 28.109375 " fill-opacity="1" fill-rule="nonzero"/></g><g fill="#ffffff" fill-opacity="1"><g transform="translate(116.595412, 48.938702)"><g><path d="M 2.359375 -0.328125 C 2.921875 -0.328125 3.398438 -0.523438 3.796875 -0.921875 C 4.203125 -1.316406 4.414062 -1.796875 4.4375 -2.359375 L 4.4375 -20.5 C 4.375 -21.019531 4.144531 -21.457031 3.75 -21.8125 C 3.363281 -22.164062 2.898438 -22.34375 2.359375 -22.34375 L 1.96875 -22.34375 L 1.9375 -22.671875 L 11.4375 -22.671875 C 12.101562 -22.671875 12.828125 -22.734375 13.609375 -22.859375 C 14.398438 -22.992188 14.957031 -23.125 15.28125 -23.25 L 15.28125 -19.171875 L 14.96875 -19.171875 L 14.96875 -19.765625 C 14.96875 -20.273438 14.785156 -20.710938 14.421875 -21.078125 C 14.066406 -21.453125 13.644531 -21.648438 13.15625 -21.671875 L 6.546875 -21.671875 L 6.546875 -11.65625 L 12.015625 -11.65625 C 12.453125 -11.675781 12.820312 -11.835938 13.125 -12.140625 C 13.425781 -12.441406 13.578125 -12.820312 13.578125 -13.28125 L 13.578125 -13.734375 L 13.890625 -13.734375 L 13.890625 -8.609375 L 13.578125 -8.609375 L 13.578125 -9.109375 C 13.578125 -9.535156 13.429688 -9.898438 13.140625 -10.203125 C 12.847656 -10.503906 12.484375 -10.664062 12.046875 -10.6875 L 6.546875 -10.6875 L 6.546875 -1 L 11.171875 -1 C 12.773438 -1 13.992188 -1.351562 14.828125 -2.0625 C 15.671875 -2.78125 16.375 -3.84375 16.9375 -5.25 L 17.265625 -5.25 L 15.390625 0 L 1.9375 0 L 1.9375 -0.328125 Z M 2.359375 -0.328125 "/></g></g></g><g fill="#ffffff" fill-opacity="1"><g transform="translate(136.899916, 48.938702)"><g><path d="M 2.359375 -0.328125 C 2.921875 -0.328125 3.398438 -0.523438 3.796875 -0.921875 C 4.203125 -1.316406 4.414062 -1.796875 4.4375 -2.359375 L 4.4375 -20.3125 C 4.414062 -20.875 4.203125 -21.351562 3.796875 -21.75 C 3.398438 -22.144531 2.921875 -22.34375 2.359375 -22.34375 L 1.9375 -22.34375 L 1.9375 -22.671875 L 9.03125 -22.671875 L 9.03125 -22.34375 L 8.609375 -22.34375 C 7.835938 -22.34375 7.242188 -22.007812 6.828125 -21.34375 C 6.640625 -21.019531 6.546875 -20.675781 6.546875 -20.3125 L 6.546875 -1 L 11.171875 -1 C 12.773438 -1 13.992188 -1.351562 14.828125 -2.0625 C 15.671875 -2.78125 16.375 -3.84375 16.9375 -5.25 L 17.265625 -5.25 L 15.390625 0 L 1.9375 0 L 1.9375 -0.328125 Z M 2.359375 -0.328125 "/></g></g></g><g fill="#ffffff" fill-opacity="1"><g transform="translate(156.718681, 48.938702)"><g><path d="M 24.328125 -22.34375 L 24.03125 -22.34375 C 23.300781 -22.34375 22.632812 -22.050781 22.03125 -21.46875 C 21.675781 -21.164062 21.40625 -20.789062 21.21875 -20.34375 L 13.40625 -2.875 C 12.601562 -1.132812 12.203125 -0.0234375 12.203125 0.453125 L 11.921875 0.453125 L 2.8125 -20.3125 C 2.507812 -21 2.09375 -21.507812 1.5625 -21.84375 C 1.039062 -22.175781 0.507812 -22.34375 -0.03125 -22.34375 L -0.296875 -22.34375 L -0.296875 -22.671875 L 7 -22.671875 L 7 -22.34375 L 6.703125 -22.34375 C 6.054688 -22.34375 5.625 -22.039062 5.40625 -21.4375 C 5.363281 -21.3125 5.34375 -21.160156 5.34375 -20.984375 C 5.34375 -20.816406 5.394531 -20.601562 5.5 -20.34375 L 12.28125 -3.375 L 19.34375 -20.34375 C 19.425781 -20.601562 19.46875 -20.851562 19.46875 -21.09375 C 19.46875 -21.34375 19.351562 -21.613281 19.125 -21.90625 C 18.894531 -22.195312 18.554688 -22.34375 18.109375 -22.34375 L 17.8125 -22.34375 L 17.8125 -22.671875 L 24.328125 -22.671875 Z M 24.328125 -22.34375 "/></g></g></g><g fill="#ffffff" fill-opacity="1"><g transform="translate(182.301591, 48.938702)"><g><path d="M 2.359375 -0.328125 C 2.921875 -0.328125 3.398438 -0.523438 3.796875 -0.921875 C 4.203125 -1.316406 4.414062 -1.796875 4.4375 -2.359375 L 4.4375 -20.34375 C 4.414062 -20.90625 4.203125 -21.378906 3.796875 -21.765625 C 3.398438 -22.148438 2.921875 -22.34375 2.359375 -22.34375 L 1.9375 -22.34375 L 1.9375 -22.671875 L 9.03125 -22.671875 L 9.03125 -22.34375 L 8.609375 -22.34375 C 8.054688 -22.34375 7.578125 -22.148438 7.171875 -21.765625 C 6.773438 -21.378906 6.566406 -20.90625 6.546875 -20.34375 L 6.546875 -2.359375 C 6.546875 -1.796875 6.75 -1.316406 7.15625 -0.921875 C 7.570312 -0.523438 8.054688 -0.328125 8.609375 -0.328125 L 9.03125 -0.328125 L 9.03125 0 L 1.9375 0 L 1.9375 -0.328125 Z M 2.359375 -0.328125 "/></g></g></g><g fill="#ffffff" fill-opacity="1"><g transform="translate(194.866593, 48.938702)"><g><path d="M 5.484375 -19.859375 C 7.640625 -22.035156 10.441406 -23.125 13.890625 -23.125 C 17.347656 -23.125 20.15625 -22.035156 22.3125 -19.859375 C 24.476562 -17.691406 25.5625 -14.847656 25.5625 -11.328125 C 25.5625 -7.816406 24.476562 -4.972656 22.3125 -2.796875 C 20.15625 -0.628906 17.347656 0.453125 13.890625 0.453125 C 10.441406 0.453125 7.640625 -0.628906 5.484375 -2.796875 C 3.335938 -4.972656 2.265625 -7.816406 2.265625 -11.328125 C 2.265625 -14.847656 3.335938 -17.691406 5.484375 -19.859375 Z M 7.265625 -3.5 C 8.941406 -1.507812 11.15625 -0.515625 13.90625 -0.515625 C 16.664062 -0.515625 18.878906 -1.507812 20.546875 -3.5 C 22.222656 -5.488281 23.0625 -8.101562 23.0625 -11.34375 C 23.0625 -13.476562 22.679688 -15.363281 21.921875 -17 C 21.171875 -18.644531 20.097656 -19.914062 18.703125 -20.8125 C 17.304688 -21.707031 15.703125 -22.15625 13.890625 -22.15625 C 11.148438 -22.15625 8.941406 -21.160156 7.265625 -19.171875 C 5.597656 -17.179688 4.765625 -14.566406 4.765625 -11.328125 C 4.765625 -8.097656 5.597656 -5.488281 7.265625 -3.5 Z M 7.265625 -3.5 "/></g></g></g><g fill="#ffffff" fill-opacity="1"><g transform="translate(142.520776, 18.478081)"><g><path d="M 6.03125 -0.109375 C 6.226562 -0.109375 6.394531 -0.171875 6.53125 -0.296875 C 6.664062 -0.429688 6.734375 -0.597656 6.734375 -0.796875 L 6.734375 -3.65625 L 2.234375 -3.65625 L 2.234375 -0.8125 C 2.234375 -0.613281 2.300781 -0.445312 2.4375 -0.3125 C 2.570312 -0.175781 2.738281 -0.109375 2.9375 -0.109375 L 3.078125 -0.109375 L 3.078125 0 L 0.65625 0 L 0.65625 -0.109375 L 0.8125 -0.109375 C 1 -0.109375 1.160156 -0.175781 1.296875 -0.3125 C 1.429688 -0.445312 1.503906 -0.613281 1.515625 -0.8125 L 1.515625 -6.921875 C 1.503906 -7.117188 1.429688 -7.28125 1.296875 -7.40625 C 1.160156 -7.539062 1 -7.609375 0.8125 -7.609375 L 0.65625 -7.609375 L 0.65625 -7.71875 L 3.078125 -7.71875 L 3.078125 -7.609375 L 2.9375 -7.609375 C 2.738281 -7.609375 2.570312 -7.539062 2.4375 -7.40625 C 2.300781 -7.28125 2.234375 -7.117188 2.234375 -6.921875 L 2.234375 -3.984375 L 6.734375 -3.984375 L 6.734375 -6.921875 C 6.734375 -7.191406 6.617188 -7.390625 6.390625 -7.515625 C 6.273438 -7.578125 6.15625 -7.609375 6.03125 -7.609375 L 5.890625 -7.609375 L 5.890625 -7.71875 L 8.3125 -7.71875 L 8.3125 -7.609375 L 8.15625 -7.609375 C 7.96875 -7.609375 7.804688 -7.539062 7.671875 -7.40625 C 7.535156 -7.269531 7.460938 -7.109375 7.453125 -6.921875 L 7.453125 -0.8125 C 7.460938 -0.613281 7.535156 -0.445312 7.671875 -0.3125 C 7.804688 -0.175781 7.96875 -0.109375 8.15625 -0.109375 L 8.3125 -0.109375 L 8.3125 0 L 5.890625 0 L 5.890625 -0.109375 Z M 6.03125 -0.109375 "/></g></g></g><g fill="#ffffff" fill-opacity="1"><g transform="translate(155.477585, 18.478081)"><g><path d="M 1.859375 -6.765625 C 2.597656 -7.503906 3.554688 -7.875 4.734375 -7.875 C 5.910156 -7.875 6.863281 -7.503906 7.59375 -6.765625 C 8.332031 -6.023438 8.703125 -5.054688 8.703125 -3.859375 C 8.703125 -2.660156 8.332031 -1.691406 7.59375 -0.953125 C 6.863281 -0.210938 5.910156 0.15625 4.734375 0.15625 C 3.554688 0.15625 2.597656 -0.210938 1.859375 -0.953125 C 1.128906 -1.691406 0.765625 -2.660156 0.765625 -3.859375 C 0.765625 -5.054688 1.128906 -6.023438 1.859375 -6.765625 Z M 2.46875 -1.1875 C 3.039062 -0.507812 3.796875 -0.171875 4.734375 -0.171875 C 5.671875 -0.171875 6.425781 -0.507812 7 -1.1875 C 7.570312 -1.863281 7.859375 -2.753906 7.859375 -3.859375 C 7.859375 -4.585938 7.726562 -5.226562 7.46875 -5.78125 C 7.207031 -6.34375 6.835938 -6.773438 6.359375 -7.078125 C 5.890625 -7.390625 5.347656 -7.546875 4.734375 -7.546875 C 3.796875 -7.546875 3.039062 -7.207031 2.46875 -6.53125 C 1.90625 -5.851562 1.625 -4.960938 1.625 -3.859375 C 1.625 -2.753906 1.90625 -1.863281 2.46875 -1.1875 Z M 2.46875 -1.1875 "/></g></g></g><g fill="#ffffff" fill-opacity="1"><g transform="translate(168.710254, 18.478081)"><g><path d="M 6.5 -6.734375 C 6.5 -6.910156 6.4375 -7.0625 6.3125 -7.1875 C 6.1875 -7.320312 6.039062 -7.394531 5.875 -7.40625 L 3.765625 -7.40625 L 3.765625 -0.796875 C 3.773438 -0.597656 3.847656 -0.429688 3.984375 -0.296875 C 4.117188 -0.171875 4.285156 -0.109375 4.484375 -0.109375 L 4.625 -0.109375 L 4.625 0 L 2.203125 0 L 2.203125 -0.109375 L 2.34375 -0.109375 C 2.539062 -0.109375 2.707031 -0.171875 2.84375 -0.296875 C 2.976562 -0.429688 3.050781 -0.59375 3.0625 -0.78125 L 3.0625 -7.40625 L 0.953125 -7.40625 C 0.773438 -7.394531 0.625 -7.320312 0.5 -7.1875 C 0.382812 -7.0625 0.328125 -6.910156 0.328125 -6.734375 L 0.328125 -6.546875 L 0.21875 -6.546875 L 0.21875 -7.9375 C 0.332031 -7.882812 0.523438 -7.835938 0.796875 -7.796875 C 1.066406 -7.753906 1.316406 -7.734375 1.546875 -7.734375 L 5.265625 -7.734375 C 5.628906 -7.734375 5.929688 -7.757812 6.171875 -7.8125 C 6.410156 -7.863281 6.554688 -7.90625 6.609375 -7.9375 L 6.609375 -6.546875 L 6.5 -6.546875 Z M 6.5 -6.734375 "/></g></g></g><g fill="#ffffff" fill-opacity="1"><g transform="translate(179.515318, 18.478081)"><g><path d="M 0.8125 -0.109375 C 1 -0.109375 1.160156 -0.175781 1.296875 -0.3125 C 1.429688 -0.445312 1.503906 -0.613281 1.515625 -0.8125 L 1.515625 -6.984375 C 1.492188 -7.160156 1.414062 -7.304688 1.28125 -7.421875 C 1.144531 -7.546875 0.988281 -7.609375 0.8125 -7.609375 L 0.671875 -7.609375 L 0.65625 -7.71875 L 3.890625 -7.71875 C 4.117188 -7.71875 4.367188 -7.738281 4.640625 -7.78125 C 4.910156 -7.832031 5.097656 -7.878906 5.203125 -7.921875 L 5.203125 -6.53125 L 5.09375 -6.53125 L 5.09375 -6.734375 C 5.09375 -6.910156 5.03125 -7.0625 4.90625 -7.1875 C 4.789062 -7.3125 4.648438 -7.375 4.484375 -7.375 L 2.234375 -7.375 L 2.234375 -3.96875 L 4.09375 -3.96875 C 4.238281 -3.976562 4.363281 -4.035156 4.46875 -4.140625 C 4.570312 -4.242188 4.625 -4.367188 4.625 -4.515625 L 4.625 -4.671875 L 4.734375 -4.671875 L 4.734375 -2.9375 L 4.625 -2.9375 L 4.625 -3.09375 C 4.625 -3.25 4.570312 -3.375 4.46875 -3.46875 C 4.375 -3.570312 4.253906 -3.628906 4.109375 -3.640625 L 2.234375 -3.640625 L 2.234375 -0.34375 L 3.8125 -0.34375 C 4.351562 -0.34375 4.765625 -0.460938 5.046875 -0.703125 C 5.335938 -0.941406 5.578125 -1.300781 5.765625 -1.78125 L 5.875 -1.78125 L 5.234375 0 L 0.65625 0 L 0.65625 -0.109375 Z M 0.8125 -0.109375 "/></g></g></g><g fill="#ffffff" fill-opacity="1"><g transform="translate(189.867963, 18.478081)"><g><path d="M 0.8125 -0.109375 C 1 -0.109375 1.160156 -0.175781 1.296875 -0.3125 C 1.429688 -0.445312 1.503906 -0.613281 1.515625 -0.8125 L 1.515625 -6.921875 C 1.503906 -7.109375 1.429688 -7.269531 1.296875 -7.40625 C 1.160156 -7.539062 1 -7.609375 0.8125 -7.609375 L 0.65625 -7.609375 L 0.65625 -7.71875 L 3.078125 -7.71875 L 3.078125 -7.609375 L 2.9375 -7.609375 C 2.664062 -7.609375 2.460938 -7.492188 2.328125 -7.265625 C 2.265625 -7.160156 2.234375 -7.046875 2.234375 -6.921875 L 2.234375 -0.34375 L 3.8125 -0.34375 C 4.351562 -0.34375 4.765625 -0.460938 5.046875 -0.703125 C 5.335938 -0.941406 5.578125 -1.300781 5.765625 -1.78125 L 5.875 -1.78125 L 5.234375 0 L 0.65625 0 L 0.65625 -0.109375 Z M 0.8125 -0.109375 "/></g></g></g><g fill="#ffffff" fill-opacity="1"><g transform="translate(222.298306, 51.008841)"><g><path d="M 10.484375 -26.375 L 7.96875 -26.375 L 7.96875 -2.875 C 7.96875 -2.195312 8.207031 -1.613281 8.6875 -1.125 C 9.175781 -0.632812 9.773438 -0.390625 10.484375 -0.390625 L 10.953125 -0.390625 L 11 0 L 2.359375 0 L 2.359375 -0.390625 L 2.875 -0.390625 C 3.5625 -0.390625 4.144531 -0.625 4.625 -1.09375 C 5.113281 -1.570312 5.375 -2.15625 5.40625 -2.84375 L 5.40625 -24.71875 C 5.375 -25.40625 5.113281 -25.988281 4.625 -26.46875 C 4.144531 -26.957031 3.5625 -27.203125 2.875 -27.203125 L 2.359375 -27.203125 L 2.359375 -27.59375 L 13.015625 -27.59375 C 15.398438 -27.59375 17.273438 -26.925781 18.640625 -25.59375 C 20.015625 -24.269531 20.703125 -22.550781 20.703125 -20.4375 C 20.703125 -18.320312 20.050781 -16.492188 18.75 -14.953125 C 17.445312 -13.421875 15.863281 -12.65625 14 -12.65625 C 14.394531 -12.46875 14.859375 -12.101562 15.390625 -11.5625 C 15.929688 -11.03125 16.410156 -10.472656 16.828125 -9.890625 C 19.085938 -6.660156 20.554688 -4.671875 21.234375 -3.921875 C 21.921875 -3.171875 22.410156 -2.65625 22.703125 -2.375 C 22.992188 -2.101562 23.3125 -1.835938 23.65625 -1.578125 C 24 -1.316406 24.335938 -1.109375 24.671875 -0.953125 C 25.441406 -0.578125 26.257812 -0.390625 27.125 -0.390625 L 27.125 0 L 24.953125 0 C 23.828125 0 22.773438 -0.203125 21.796875 -0.609375 C 20.828125 -1.015625 20.097656 -1.429688 19.609375 -1.859375 C 19.128906 -2.296875 18.707031 -2.71875 18.34375 -3.125 C 17.988281 -3.539062 17.007812 -4.90625 15.40625 -7.21875 C 13.8125 -9.53125 12.878906 -10.847656 12.609375 -11.171875 C 12.347656 -11.503906 12.070312 -11.828125 11.78125 -12.140625 C 10.945312 -13.035156 10.109375 -13.484375 9.265625 -13.484375 L 9.265625 -13.875 C 9.472656 -13.851562 9.75 -13.84375 10.09375 -13.84375 C 10.4375 -13.84375 10.859375 -13.851562 11.359375 -13.875 C 14.609375 -13.957031 16.65625 -15.320312 17.5 -17.96875 C 17.65625 -18.5 17.734375 -18.992188 17.734375 -19.453125 C 17.734375 -19.910156 17.734375 -20.207031 17.734375 -20.34375 C 17.679688 -22.101562 17.222656 -23.519531 16.359375 -24.59375 C 15.492188 -25.675781 14.320312 -26.253906 12.84375 -26.328125 C 12.21875 -26.359375 11.429688 -26.375 10.484375 -26.375 Z M 10.484375 -26.375 "/></g></g></g><g fill="#ffffff" fill-opacity="1"><g transform="translate(93.062906, 50.417373)"><g><path d="M 11.984375 0 L 2.359375 0 L 2.40625 -0.390625 L 2.875 -0.390625 C 3.5625 -0.390625 4.144531 -0.625 4.625 -1.09375 C 5.113281 -1.570312 5.375 -2.15625 5.40625 -2.84375 L 5.40625 -24.75 C 5.40625 -25.4375 5.15625 -26.015625 4.65625 -26.484375 C 4.15625 -26.960938 3.5625 -27.203125 2.875 -27.203125 L 2.40625 -27.203125 L 2.359375 -27.59375 L 10.203125 -27.59375 C 12.910156 -27.59375 15.015625 -26.992188 16.515625 -25.796875 C 18.015625 -24.609375 18.765625 -23.015625 18.765625 -21.015625 C 18.765625 -19.429688 18.34375 -18.117188 17.5 -17.078125 C 16.65625 -16.046875 15.628906 -15.359375 14.421875 -15.015625 C 16.503906 -14.703125 18.148438 -13.847656 19.359375 -12.453125 C 20.566406 -11.066406 21.171875 -9.3125 21.171875 -7.1875 C 21.171875 -5.070312 20.363281 -3.34375 18.75 -2 C 17.132812 -0.664062 14.878906 0 11.984375 0 Z M 7.96875 -1.421875 L 11.828125 -1.421875 C 11.847656 -1.421875 11.875 -1.421875 11.90625 -1.421875 C 13.90625 -1.421875 15.457031 -1.960938 16.5625 -3.046875 C 17.664062 -4.140625 18.21875 -5.6875 18.21875 -7.6875 C 18.21875 -8.8125 18.023438 -9.800781 17.640625 -10.65625 C 17.253906 -11.507812 16.773438 -12.1875 16.203125 -12.6875 C 14.679688 -13.957031 12.394531 -14.59375 9.34375 -14.59375 C 9.34375 -14.59375 9.328125 -14.59375 9.296875 -14.59375 L 9.296875 -14.9375 C 9.328125 -14.9375 9.453125 -14.9375 9.671875 -14.9375 C 9.898438 -14.9375 10.222656 -14.960938 10.640625 -15.015625 C 11.066406 -15.066406 11.539062 -15.160156 12.0625 -15.296875 C 12.582031 -15.429688 13.050781 -15.640625 13.46875 -15.921875 C 13.894531 -16.210938 14.296875 -16.554688 14.671875 -16.953125 C 15.429688 -17.816406 15.8125 -19.109375 15.8125 -20.828125 C 15.8125 -22.554688 15.316406 -23.90625 14.328125 -24.875 C 13.335938 -25.84375 11.910156 -26.328125 10.046875 -26.328125 L 7.96875 -26.328125 Z M 7.96875 -1.421875 "/></g></g></g><path stroke-linecap="butt" transform="matrix(0.591468, 0, 0, 0.591468, 103.789132, 14.929272)" fill="none" stroke-linejoin="miter" d="M -0.000116694 0.502631 L 55.304513 0.502631 " stroke="#ffffff" stroke-width="1" stroke-opacity="1" stroke-miterlimit="4"/><path stroke-linecap="butt" transform="matrix(0.591468, 0, 0, 0.591468, 202.106843, 14.337804)" fill="none" stroke-linejoin="miter" d="M -0.00232391 0.498773 L 55.302306 0.498773 " stroke="#ffffff" stroke-width="1" stroke-opacity="1" stroke-miterlimit="4"/><g fill="#ffffff" fill-opacity="1"><g transform="translate(130.461235, 63.03796)"><g><path d="M 0.75 -0.109375 C 0.925781 -0.109375 1.078125 -0.171875 1.203125 -0.296875 C 1.328125 -0.421875 1.394531 -0.570312 1.40625 -0.75 L 1.40625 -6.484375 C 1.382812 -6.648438 1.3125 -6.789062 1.1875 -6.90625 C 1.0625 -7.019531 0.914062 -7.078125 0.75 -7.078125 L 0.625 -7.078125 L 0.609375 -7.171875 L 3.625 -7.171875 C 3.832031 -7.171875 4.0625 -7.191406 4.3125 -7.234375 C 4.5625 -7.273438 4.738281 -7.316406 4.84375 -7.359375 L 4.84375 -6.0625 L 4.734375 -6.0625 L 4.734375 -6.25 C 4.734375 -6.414062 4.675781 -6.554688 4.5625 -6.671875 C 4.445312 -6.785156 4.3125 -6.847656 4.15625 -6.859375 L 2.078125 -6.859375 L 2.078125 -3.6875 L 3.796875 -3.6875 C 3.929688 -3.695312 4.046875 -3.75 4.140625 -3.84375 C 4.242188 -3.9375 4.296875 -4.054688 4.296875 -4.203125 L 4.296875 -4.34375 L 4.390625 -4.34375 L 4.390625 -2.71875 L 4.296875 -2.71875 L 4.296875 -2.875 C 4.296875 -3.007812 4.25 -3.125 4.15625 -3.21875 C 4.0625 -3.320312 3.945312 -3.375 3.8125 -3.375 L 2.078125 -3.375 L 2.078125 -0.3125 L 3.53125 -0.3125 C 4.039062 -0.3125 4.425781 -0.425781 4.6875 -0.65625 C 4.957031 -0.882812 5.179688 -1.21875 5.359375 -1.65625 L 5.46875 -1.65625 L 4.875 0 L 0.609375 0 L 0.609375 -0.109375 Z M 0.75 -0.109375 "/></g></g></g><g fill="#ffffff" fill-opacity="1"><g transform="translate(144.576576, 63.03796)"><g><path d="M 0.625 -0.421875 C 0.601562 -0.515625 0.59375 -0.695312 0.59375 -0.96875 C 0.59375 -1.25 0.644531 -1.539062 0.75 -1.84375 L 0.84375 -1.84375 C 0.832031 -1.769531 0.828125 -1.695312 0.828125 -1.625 C 0.828125 -1.207031 0.953125 -0.859375 1.203125 -0.578125 C 1.460938 -0.296875 1.800781 -0.15625 2.21875 -0.15625 C 2.644531 -0.15625 2.992188 -0.285156 3.265625 -0.546875 C 3.546875 -0.804688 3.6875 -1.132812 3.6875 -1.53125 C 3.6875 -1.925781 3.554688 -2.242188 3.296875 -2.484375 L 1.328125 -4.3125 C 0.953125 -4.65625 0.765625 -5.066406 0.765625 -5.546875 C 0.765625 -6.035156 0.925781 -6.453125 1.25 -6.796875 C 1.582031 -7.140625 2.023438 -7.3125 2.578125 -7.3125 C 2.835938 -7.3125 3.128906 -7.28125 3.453125 -7.21875 L 3.859375 -7.21875 L 3.859375 -5.953125 L 3.765625 -5.953125 C 3.765625 -6.273438 3.648438 -6.53125 3.421875 -6.71875 C 3.203125 -6.914062 2.914062 -7.015625 2.5625 -7.015625 C 2.21875 -7.015625 1.925781 -6.894531 1.6875 -6.65625 C 1.457031 -6.425781 1.34375 -6.132812 1.34375 -5.78125 C 1.34375 -5.4375 1.476562 -5.140625 1.75 -4.890625 L 3.765625 -3.03125 C 4.109375 -2.707031 4.28125 -2.269531 4.28125 -1.71875 C 4.28125 -1.175781 4.101562 -0.726562 3.75 -0.375 C 3.40625 -0.03125 2.945312 0.140625 2.375 0.140625 C 2.070312 0.140625 1.75 0.09375 1.40625 0 C 1.070312 -0.09375 0.8125 -0.234375 0.625 -0.421875 Z M 0.625 -0.421875 "/></g></g></g><g fill="#ffffff" fill-opacity="1"><g transform="translate(157.646514, 63.03796)"><g><path d="M 6.03125 -6.265625 C 6.03125 -6.429688 5.972656 -6.570312 5.859375 -6.6875 C 5.742188 -6.8125 5.609375 -6.875 5.453125 -6.875 L 3.5 -6.875 L 3.5 -0.734375 C 3.507812 -0.554688 3.578125 -0.40625 3.703125 -0.28125 C 3.828125 -0.164062 3.976562 -0.109375 4.15625 -0.109375 L 4.296875 -0.109375 L 4.296875 0 L 2.046875 0 L 2.046875 -0.109375 L 2.1875 -0.109375 C 2.363281 -0.109375 2.515625 -0.164062 2.640625 -0.28125 C 2.765625 -0.40625 2.832031 -0.554688 2.84375 -0.734375 L 2.84375 -6.875 L 0.890625 -6.875 C 0.722656 -6.875 0.582031 -6.8125 0.46875 -6.6875 C 0.363281 -6.570312 0.3125 -6.429688 0.3125 -6.265625 L 0.3125 -6.09375 L 0.203125 -6.078125 L 0.203125 -7.375 C 0.304688 -7.332031 0.484375 -7.289062 0.734375 -7.25 C 0.992188 -7.207031 1.226562 -7.1875 1.4375 -7.1875 L 4.90625 -7.1875 C 5.238281 -7.1875 5.515625 -7.210938 5.734375 -7.265625 C 5.953125 -7.316406 6.085938 -7.351562 6.140625 -7.375 L 6.140625 -6.078125 L 6.03125 -6.09375 Z M 6.03125 -6.265625 "/></g></g></g><g fill="#ffffff" fill-opacity="1"><g transform="translate(172.182063, 63.03796)"><g><path d="M 7.34375 -0.109375 L 7.421875 -0.109375 L 7.421875 0 L 5.125 0 L 5.125 -0.109375 L 5.21875 -0.109375 C 5.351562 -0.109375 5.457031 -0.148438 5.53125 -0.234375 C 5.601562 -0.328125 5.640625 -0.414062 5.640625 -0.5 C 5.640625 -0.582031 5.628906 -0.664062 5.609375 -0.75 L 4.953125 -2.484375 L 2.171875 -2.484375 L 1.484375 -0.734375 C 1.460938 -0.648438 1.453125 -0.566406 1.453125 -0.484375 C 1.453125 -0.410156 1.488281 -0.328125 1.5625 -0.234375 C 1.632812 -0.148438 1.738281 -0.109375 1.875 -0.109375 L 1.96875 -0.109375 L 1.96875 0 L -0.09375 0 L -0.09375 -0.109375 L 0 -0.109375 C 0.175781 -0.109375 0.34375 -0.160156 0.5 -0.265625 C 0.664062 -0.378906 0.800781 -0.539062 0.90625 -0.75 L 3.21875 -6.265625 C 3.476562 -6.816406 3.609375 -7.164062 3.609375 -7.3125 L 3.703125 -7.3125 L 6.4375 -0.75 C 6.53125 -0.539062 6.660156 -0.378906 6.828125 -0.265625 C 6.992188 -0.160156 7.164062 -0.109375 7.34375 -0.109375 Z M 2.296875 -2.796875 L 4.828125 -2.796875 L 3.59375 -6.09375 Z M 2.296875 -2.796875 "/></g></g></g><g fill="#ffffff" fill-opacity="1"><g transform="translate(187.681013, 63.03796)"><g><path d="M 6.03125 -6.265625 C 6.03125 -6.429688 5.972656 -6.570312 5.859375 -6.6875 C 5.742188 -6.8125 5.609375 -6.875 5.453125 -6.875 L 3.5 -6.875 L 3.5 -0.734375 C 3.507812 -0.554688 3.578125 -0.40625 3.703125 -0.28125 C 3.828125 -0.164062 3.976562 -0.109375 4.15625 -0.109375 L 4.296875 -0.109375 L 4.296875 0 L 2.046875 0 L 2.046875 -0.109375 L 2.1875 -0.109375 C 2.363281 -0.109375 2.515625 -0.164062 2.640625 -0.28125 C 2.765625 -0.40625 2.832031 -0.554688 2.84375 -0.734375 L 2.84375 -6.875 L 0.890625 -6.875 C 0.722656 -6.875 0.582031 -6.8125 0.46875 -6.6875 C 0.363281 -6.570312 0.3125 -6.429688 0.3125 -6.265625 L 0.3125 -6.09375 L 0.203125 -6.078125 L 0.203125 -7.375 C 0.304688 -7.332031 0.484375 -7.289062 0.734375 -7.25 C 0.992188 -7.207031 1.226562 -7.1875 1.4375 -7.1875 L 4.90625 -7.1875 C 5.238281 -7.1875 5.515625 -7.210938 5.734375 -7.265625 C 5.953125 -7.316406 6.085938 -7.351562 6.140625 -7.375 L 6.140625 -6.078125 L 6.03125 -6.09375 Z M 6.03125 -6.265625 "/></g></g></g><g fill="#ffffff" fill-opacity="1"><g transform="translate(202.216562, 63.03796)"><g><path d="M 0.75 -0.109375 C 0.925781 -0.109375 1.078125 -0.171875 1.203125 -0.296875 C 1.328125 -0.421875 1.394531 -0.570312 1.40625 -0.75 L 1.40625 -6.484375 C 1.382812 -6.648438 1.3125 -6.789062 1.1875 -6.90625 C 1.0625 -7.019531 0.914062 -7.078125 0.75 -7.078125 L 0.625 -7.078125 L 0.609375 -7.171875 L 3.625 -7.171875 C 3.832031 -7.171875 4.0625 -7.191406 4.3125 -7.234375 C 4.5625 -7.273438 4.738281 -7.316406 4.84375 -7.359375 L 4.84375 -6.0625 L 4.734375 -6.0625 L 4.734375 -6.25 C 4.734375 -6.414062 4.675781 -6.554688 4.5625 -6.671875 C 4.445312 -6.785156 4.3125 -6.847656 4.15625 -6.859375 L 2.078125 -6.859375 L 2.078125 -3.6875 L 3.796875 -3.6875 C 3.929688 -3.695312 4.046875 -3.75 4.140625 -3.84375 C 4.242188 -3.9375 4.296875 -4.054688 4.296875 -4.203125 L 4.296875 -4.34375 L 4.390625 -4.34375 L 4.390625 -2.71875 L 4.296875 -2.71875 L 4.296875 -2.875 C 4.296875 -3.007812 4.25 -3.125 4.15625 -3.21875 C 4.0625 -3.320312 3.945312 -3.375 3.8125 -3.375 L 2.078125 -3.375 L 2.078125 -0.3125 L 3.53125 -0.3125 C 4.039062 -0.3125 4.425781 -0.425781 4.6875 -0.65625 C 4.957031 -0.882812 5.179688 -1.21875 5.359375 -1.65625 L 5.46875 -1.65625 L 4.875 0 L 0.609375 0 L 0.609375 -0.109375 Z M 0.75 -0.109375 "/></g></g></g></g></g></g></svg>